# xmcd CD database file
#
# Track frame offsets:
#	150
#	17731
#	38056
#	55584
#	74252
#	93631
#	110195
#	128692
#	146050
#	164641
#	182944
#
# Disc length: 2671 seconds
#
# Revision: 1
# Processed by: cddbd v1.5.2PL0 Copyright (c) Steve Scherf et al.
# Submitted via: CDex 1.79
#
DISCID=a00a6d0b
DTITLE=Mystic Prophecy - War Brigade
DYEAR=2016
DGENRE=Power Ballad
TTITLE0=Follow The Blind
TTITLE1=Metal Brigade
TTITLE2=Burning Out
TTITLE3=The Crucifix
TTITLE4=Pray For Hell
TTITLE5=10.000 Miles Away
TTITLE6=Good Day To Die
TTITLE7=The Devil Is Back
TTITLE8=War Panzer
TTITLE9=Fight For One Nation
TTITLE10=War Of Lies
EXTD=YEAR: 2016
EXTT0=
EXTT1=
EXTT2=
EXTT3=
EXTT4=
EXTT5=
EXTT6=
EXTT7=
EXTT8=
EXTT9=
EXTT10=
PLAYORDER=
